<?xml version="1.0" encoding="UTF-8"?>
<svg id="Layer_2" data-name="Layer 2" xmlns="http://www.w3.org/2000/svg" viewBox="0 0 292.74 68.82">
  <defs>
    <style>
      .cls-1 {
        fill: #fff;
      }
    </style>
  </defs>
  <g id="Layer_1-2" data-name="Layer 1">
    <g>
      <rect width="292.74" height="68.82" rx="9.9" ry="9.9"/>
      <g>
        <path class="cls-1" d="m34.05,43.21c-1.03,0-1.86-.09-2.5-.28l.44-2.89c.54.17,1.12.25,1.73.25.91.06,1.6-.51,2.08-1.71l.14-.28-5.34-12.36h3.74l3.21,9.2h.07l3.21-9.2h3.42l-5.52,13.82c-.45,1.16-1.03,2.01-1.76,2.56-.77.59-1.75.88-2.94.88Z"/>
        <path class="cls-1" d="m54.43,43.17c-3.31-.05-5.64-1.46-6.98-4.23l2.61-1.27c.54.88,1.14,1.51,1.8,1.9.68.39,1.55.58,2.61.58s1.92-.2,2.57-.6c.68-.42,1.02-.99,1.02-1.71,0-.89-.35-1.52-1.06-1.87-.66-.34-1.76-.51-3.3-.51h-2.2v-2.7h2.2c2.57,0,3.86-.7,3.86-2.1,0-.6-.28-1.08-.83-1.43-.57-.37-1.32-.55-2.24-.55s-1.72.17-2.43.51c-.62.29-1.2.74-1.76,1.34l-2.36-1.9c1.59-2.02,3.83-3.03,6.73-3.03,1.88,0,3.41.44,4.6,1.32,1.16.85,1.73,1.9,1.73,3.17-.08,2.03-1.21,3.3-3.4,3.79v.09c1.2.22,2.15.69,2.84,1.41.71.75,1.06,1.7,1.06,2.84,0,1.45-.61,2.63-1.83,3.54-1.28.96-3.03,1.43-5.25,1.43Z"/>
        <path class="cls-1" d="m66.56,42.94v-16.99h3.33v6.86h7.35v-6.86h3.33v16.99h-3.33v-7.21h-7.35v7.21h-3.33Z"/>
        <path class="cls-1" d="m84.87,42.94l6.66-16.99h3.44l6.68,16.99h-3.44l-1.55-4.14h-6.98l-1.5,4.14h-3.3Zm5.82-6.96h4.97l-2.47-6.68h-.05l-2.45,6.68Z"/>
        <path class="cls-1" d="m108.05,42.94v-14.07h-5.01v-2.91h13.33v2.91h-5.02v14.07h-3.3Z"/>
        <path class="cls-1" d="m120.3,42.94v-16.99h3.33v6.31h3.65c4.11,0,6.17,1.76,6.17,5.29,0,1.82-.61,3.19-1.83,4.11-1.11.85-2.63,1.27-4.58,1.27h-6.75Zm3.33-2.94h3.14c1.06,0,1.85-.17,2.36-.51.59-.38.88-1.05.88-1.99s-.32-1.55-.97-1.92c-.49-.28-1.22-.42-2.17-.42h-3.24v4.83Z"/>
        <path class="cls-1" d="m146.87,25.95h11.25v2.87h-7.93v3.44h3.65c4.11,0,6.17,1.76,6.17,5.29,0,1.82-.61,3.19-1.83,4.11-1.11.85-2.63,1.27-4.58,1.27h-6.75v-16.99Zm3.33,14.05h3.14c1.06,0,1.85-.17,2.36-.51.59-.38.88-1.05.88-1.99s-.32-1.55-.97-1.92c-.49-.28-1.22-.42-2.17-.42h-3.24v4.83Z"/>
        <path class="cls-1" d="m172.39,43.31c-2.42,0-4.42-.85-6.01-2.54-1.57-1.68-2.36-3.78-2.36-6.31s.79-4.64,2.38-6.33,3.58-2.54,5.99-2.54,4.45.85,6.03,2.54c1.57,1.68,2.36,3.79,2.36,6.33-.05,2.59-.83,4.7-2.36,6.33-1.54,1.63-3.55,2.47-6.03,2.52Zm-4.9-8.85c0,1.73.45,3.12,1.34,4.18.91,1.08,2.09,1.62,3.56,1.62s2.69-.53,3.58-1.59,1.34-2.46,1.34-4.21-.45-3.17-1.34-4.23c-.91-1.08-2.1-1.62-3.58-1.62s-2.65.54-3.56,1.62c-.89,1.06-1.34,2.47-1.34,4.23Z"/>
        <path class="cls-1" d="m184.29,41.18c1.14-.88,1.91-1.79,2.31-2.73.38-.91.58-2.21.58-3.91v-8.6h12.83v16.99h-3.33v-14.12h-6.31v5.71c0,2.31-.26,4.08-.79,5.29-.54,1.26-1.59,2.5-3.14,3.72l-2.15-2.36Z"/>
        <path class="cls-1" d="m205.92,42.94v-16.99h3.33v6.31h3.65c4.11,0,6.17,1.76,6.17,5.29,0,1.82-.61,3.19-1.83,4.11-1.11.85-2.63,1.27-4.58,1.27h-6.75Zm3.33-2.94h3.14c1.06,0,1.85-.17,2.36-.51.59-.38.88-1.05.88-1.99s-.32-1.55-.97-1.92c-.49-.28-1.22-.42-2.17-.42h-3.24v4.83Z"/>
        <path class="cls-1" d="m223.94,42.94v-16.99h3.26v14.19h5.66v-14.19h3.19v14.19h5.75v-14.19h3.26v16.99h-21.12Z"/>
        <path class="cls-1" d="m250.96,42.94v-16.99h11.76v2.87h-8.44v3.97h7.76v2.84h-7.76v4.41h8.8v2.89h-12.13Z"/>
      </g>
    </g>
  </g>
</svg>