<svg width="12" height="13" viewBox="0 0 12 13" fill="none" xmlns="http://www.w3.org/2000/svg">
<path fill-rule="evenodd" clip-rule="evenodd" d="M3.33333 0C2.96514 0 2.66667 0.287817 2.66667 0.642857V1.28571H2C0.895431 1.28571 0 2.14916 0 3.21429V4.5V10.9286C0 11.9937 0.895431 12.8571 2 12.8571H10C11.1046 12.8571 12 11.9937 12 10.9286V4.5V3.21429C12 2.14917 11.1046 1.28571 10 1.28571H9.33333V0.642857C9.33333 0.287817 9.03486 0 8.66667 0C8.29848 0 8 0.287817 8 0.642857V1.28571H4V0.642857C4 0.287817 3.70152 0 3.33333 0ZM8.66667 2.57143H3.33333H2C1.63181 2.57143 1.33333 2.85925 1.33333 3.21429V3.85714H10.6667V3.21429C10.6667 2.85925 10.3682 2.57143 10 2.57143H8.66667ZM1.33333 10.9286V5.14286H10.6667V10.9286C10.6667 11.2836 10.3682 11.5714 10 11.5714H2C1.63181 11.5714 1.33333 11.2836 1.33333 10.9286ZM2.66667 7.07143C2.66667 6.71639 2.96514 6.42857 3.33333 6.42857H4.66667C5.03486 6.42857 5.33333 6.71639 5.33333 7.07143V8.35714C5.33333 8.71218 5.03486 9 4.66667 9H3.33333C2.96514 9 2.66667 8.71218 2.66667 8.35714V7.07143Z" fill="#8F8F8F"/>
</svg>
