<svg xmlns="http://www.w3.org/2000/svg" viewBox="0 0 322.41 103.53"><defs><style>.cls-1{opacity:0.3;isolation:isolate;}.cls-2{fill:#f4f4f4;}.cls-2,.cls-3{fill-rule:evenodd;}.cls-3{fill:#fff;}</style></defs><g id="Layer_2" data-name="Layer 2"><g id="Layer_1-2" data-name="Layer 1"><rect id="Rectangle_3_copy_6" data-name="Rectangle 3 copy 6" class="cls-1" width="322.41" height="103.53"/><path class="cls-2" d="M251.39,32V73l26-22Z"/><path class="cls-2" d="M282.39,32V73h11V32Z"/><path id="Batafsil" class="cls-3" d="M49.94,36.6H34.54V71.27H50.39c7.93,0,12.83-3.62,12.83-9.56a8.48,8.48,0,0,0-7.38-8.77,7.59,7.59,0,0,0,6-7.68C61.88,39.92,57.33,36.6,49.94,36.6ZM49.6,50.77H41.18V42.35H49.6c3.42-.05,5.5,1.48,5.5,4.11s-2.08,4.3-5.5,4.3Zm0,14.76H41.18V56.36H49.6c4.21,0,6.74,1.69,6.74,4.51,0,3-2.53,4.69-6.74,4.65Zm41.8,5.74-.05-17.34c0-5.89-4-9.41-10.9-9.41a21.4,21.4,0,0,0-11.64,3.27l2.33,4.46A15.55,15.55,0,0,1,79,49.77c4,0,6,1.83,6,4.9v.7H77.28c-6.44.05-10,3.07-10,8,0,4.71,3.56,8.22,9.26,8.22a10.38,10.38,0,0,0,8.57-3.51v3.22ZM78,66.62c-2.93,0-4.71-1.44-4.71-3.67s1.59-3.27,5-3.27H85v2.38c-.35,2.57-3.27,4.56-7,4.56Zm34.61-1.84a8.88,8.88,0,0,1-3.76,1.09c-1.74,0-2.78-.84-2.78-3.37V50.56h7.58V45.85H106.1V38.57H99.71v7.28H96l0,4.71h3.71V63.63c0,5.45,3.47,7.93,7.78,7.93a12.8,12.8,0,0,0,6.64-1.93Zm28.53,6.49,0-17.34c-.05-5.89-4-9.41-10.9-9.41a21.38,21.38,0,0,0-11.64,3.27l2.33,4.46a15.41,15.41,0,0,1,7.87-2.47c4,0,6,1.83,6,4.9v.69h-7.73c-6.44.05-10,3.07-10,8,0,4.7,3.56,8.22,9.26,8.22a10.42,10.42,0,0,0,8.57-3.52v3.22Zm-13.38-4.65c-2.92,0-4.7-1.44-4.7-3.67s1.58-3.27,5-3.27h6.69v2.38c-.35,2.57-3.27,4.56-7,4.56Zm31.65-26.85a9,9,0,0,1,3.27.8l1.13-5.21A11.51,11.51,0,0,0,159,34.22c-4.91,0-9.41,3-9.41,9.11v2.53h-3.47v4.7h3.47V71.27H156V50.56h6.64V45.85H156V43.13a3.15,3.15,0,0,1,2.88-3.37,3.39,3.39,0,0,1,.55,0ZM182.17,52l2.33-4.65a17.88,17.88,0,0,0-9.71-2.83c-5.35,0-10,2.53-10,8-.05,9.41,13.77,6.73,13.77,11.63,0,1.74-1.68,2.48-3.91,2.48a14.77,14.77,0,0,1-9-3.27l-2.23,4.5a17,17,0,0,0,10.94,3.72c5.65,0,10.45-2.63,10.45-8,0-9.51-14-7.18-14-11.64,0-1.63,1.48-2.32,3.56-2.32A16.27,16.27,0,0,1,182.17,52Zm11.39-18.58a3.84,3.84,0,1,0,3.66,4v-.15a3.66,3.66,0,0,0-3.42-3.87h-.24Zm-3.22,11.4V71.27h6.44V44.77h-6.44ZM205,34.52V71.27h6.43V34.52Z"/></g></g></svg>