<svg xmlns="http://www.w3.org/2000/svg" viewBox="0 0 1919.04 5.1"><defs><style>.cls-1{fill:#888;}</style></defs><g id="Layer_2" data-name="Layer 2"><g id="Layer_1-2" data-name="Layer 1"><g id="Layer_2-2" data-name="Layer 2"><g id="Layer_1-2-2" data-name="Layer 1-2"><g id="Group_2" data-name="Group 2"><g id="advertising"><path d="M1871,3.7h-2.7l-.63,1.3h-.5l2.2-4.8h.5l2.2,4.8h-.5Zm-.2-.4-1.2-2.6-1.1,2.6Z"/><path d="M1877.84,2.6a2.43,2.43,0,0,1-2.4,2.4h-2V.2h1.9a2.34,2.34,0,0,1,2.5,2.17Zm-.5,0a2,2,0,0,0-2-2h-1.5v4h1.5a1.89,1.89,0,0,0,2-1.77A.89.89,0,0,0,1877.34,2.6Z"/><path d="M1879.14.2l1.7,4.3,1.7-4.3h.5L1881,5h-.5l-2-4.8Z"/><path d="M1887.71.2V.6h-2.8V2.3h2.5v.4h-2.5V4.5h2.9v.4h-3.3V.2Z"/><path d="M1892.64,5l-1-1.6H1890V5h-.5V.2h1.8c1.2,0,1.9.6,1.9,1.6a1.51,1.51,0,0,1-1.1,1.6l1.2,1.7h-.7Zm-1.4-2c.9,0,1.4-.4,1.4-1.2s-.5-1.2-1.4-1.2h-1.3V3Z"/><path d="M1898,.1V.6h-1.6V5h-.5V.6h-1.6V.1Z"/><path d="M1899.84.2V5h-.5V.2Z"/><path d="M1903.24.6c-.7,0-1.1.3-1.1.7,0,1.4,2.8.7,2.8,2.4,0,.8-.7,1.3-1.7,1.3a2.91,2.91,0,0,1-1.8-.7l.2-.4a2.37,2.37,0,0,0,1.6.7c.7,0,1.2-.3,1.2-.8,0-1.4-2.8-.7-2.8-2.4,0-.7.7-1.2,1.7-1.2a4.13,4.13,0,0,1,1.5.4l-.2.4A2.46,2.46,0,0,0,1903.24.6Z"/><path d="M1907,.2V5h-.5V.2Z"/><path d="M1913.14.2V5h-.5l-3-4.1V5h-.5V.2h.5l3,4.1V.2Z"/><path d="M1918.54,2.6h.4V4.4a2.79,2.79,0,0,1-1.8.6,2.48,2.48,0,0,1-2.5-2.46v0h0A2.48,2.48,0,0,1,1917.1,0h.14a2.55,2.55,0,0,1,1.8.7l-.3.4a2,2,0,1,0-1.5,3.4,2.83,2.83,0,0,0,1.3-.4Z"/><g id="Layer_2-2-2" data-name="Layer 2-2"><g id="Group_2-2" data-name="Group 2-2"><rect class="cls-1" y="2.2" width="1858.74" height="0.7"/></g></g></g></g></g></g></g></g></svg>