<svg xmlns="http://www.w3.org/2000/svg" viewBox="0 0 123.8 8.52">
  <g id="Layer_2" data-name="Layer 2">
    <g id="Group_2" data-name="Group 2">
      <g id="ad_by_NATIVE_NETWORK" data-name="ad by NATIVE NETWORK">
        <g>
          <path d="M4.94,5.05H1.42L.67,6.74H0L2.86.39h.65L6.37,6.74H5.69Zm-.25-.57L3.17,1.05,1.66,4.48Z" style="fill: #353333"/>
          <path d="M12.06,0V6.74h-.61V5.65a2,2,0,0,1-1.9,1.12A2.27,2.27,0,0,1,7.24,4.35a2.26,2.26,0,0,1,2.3-2.41,2,2,0,0,1,1.91,1.14V0Zm-.61,4.37a1.8,1.8,0,1,0-3.6,0,1.8,1.8,0,1,0,3.6,0Z" style="fill: #353333"/>
          <path d="M22.81,4.37a2.24,2.24,0,0,1-2.28,2.38,2,2,0,0,1-1.91-1.11v1.1H18V0h.61V3.08A2,2,0,0,1,20.52,2,2.25,2.25,0,0,1,22.81,4.37Zm-.62,0a1.79,1.79,0,1,0-3.57,0,1.79,1.79,0,1,0,3.57,0Z" style="fill: #353333"/>
          <path d="M24.64,8.52a1.5,1.5,0,0,1-1-.32l.27-.47a1.19,1.19,0,0,0,.68.21,1,1,0,0,0,.92-.74l.19-.49L23.75,2h.65L26,6.06,27.6,2h.63L26,7.42A1.51,1.51,0,0,1,24.64,8.52Z" style="fill: #353333"/>
          <path d="M38.51.39V6.74h-.66L33.92,1.36V6.74h-.63V.39H34l3.94,5.37V.39Z" style="fill: #353333"/>
          <path d="M45.18,5.05H41.66l-.75,1.69h-.67L43.1.39h.65l2.87,6.35h-.69Zm-.24-.57L43.41,1.05,41.9,4.48Z" style="fill: #353333"/>
          <path d="M51.67.38V1h-2.1V6.74h-.63V1H46.85V.38Z" style="fill: #353333"/>
          <path d="M54.07.39V6.74h-.63V.39Z" style="fill: #353333"/>
          <path d="M56.48.39l2.26,5.66L61,.39h.66L59.05,6.74H58.4L55.81.39Z" style="fill: #353333"/>
          <path d="M67.65.39V1H64V3.22h3.25v.57H64V6.17h3.74v.57H63.4V.39Z" style="fill: #353333"/>
          <path d="M78.6.39V6.74h-.66L74,1.36V6.74h-.62V.39H74L78,5.76V.39Z" style="fill: #353333"/>
          <path d="M85.53.39V1H81.91V3.22h3.24v.57H81.91V6.17h3.74v.57H81.28V.39Z" style="fill: #353333"/>
          <path d="M91.78.38V1h-2.1V6.74h-.62V1H87V.38Z" style="fill: #353333"/>
          <path d="M101.81.38,99.66,6.74H99L97.22,1.17,95.41,6.74h-.64L92.62.38h.68l1.81,5.69L96.91.38h.63l1.81,5.69,1.8-5.69Z" style="fill: #353333"/>
          <path d="M109.41,3.55a3.31,3.31,0,0,1-6.62,0,3.31,3.31,0,0,1,6.62,0Zm-6,0a2.68,2.68,0,1,0,5.36,0,2.68,2.68,0,0,0-5.36,0Z" style="fill: #353333"/>
          <path d="M115.66,6.74l-1.38-2.07H112.1V6.74h-.63V.39h2.37c1.58,0,2.49.76,2.49,2.11a2,2,0,0,1-1.47,2.05l1.52,2.19Zm-1.82-2.62c1.2,0,1.89-.56,1.89-1.61S115,1,113.84,1H112.1V4.12Z" style="fill: #353333"/>
          <path d="M123,6.74l-2.4-3.09-1.29,1.4V6.74h-.63V.38h.63V4.25L122.86.38h.76l-2.55,2.78,2.73,3.58Z" style="fill: #353333"/>
        </g>
      </g>
    </g>
  </g>
</svg>
