<svg width="120" height="25" viewBox="0 0 120 25" fill="none" xmlns="http://www.w3.org/2000/svg">
<path d="M67.7544 17.2101H71.9505C74.1325 17.2101 75.4153 16.215 75.4153 14.5126C75.4153 12.894 74.3004 12.0069 72.2622 12.0069H70.0922V10.6521H74.7679V8.8178H67.7544V17.2101ZM70.0922 15.5076V13.6973H71.7947C72.6099 13.6973 73.0175 13.985 73.0175 14.5845C73.0175 15.1839 72.5859 15.5076 71.7947 15.5076H70.0922Z" fill="white"/>
<path d="M76.6407 17.2101H78.8827L82.3355 12.2946V17.2101H84.6733V8.8178H82.4434L78.9786 13.7453V8.8178H76.6407V17.2101Z" fill="white"/>
<path d="M91.6666 12.8461C92.374 12.4984 92.8176 11.863 92.8176 11.0717C92.8176 9.51316 91.0192 8.62598 88.9811 8.62598C87.998 8.62598 86.955 8.82979 86.0318 9.27338L86.7272 11.0717C87.4465 10.6881 88.2738 10.4963 88.9571 10.4963C89.7844 10.4963 90.4198 10.784 90.4198 11.3475C90.4198 11.7791 90.0601 12.0548 89.4127 12.0548H87.4585V13.7932H89.6045C90.2759 13.7932 90.7555 14.009 90.7555 14.5245C90.7555 15.1719 89.9642 15.5076 88.9571 15.5076C88.1898 15.5076 87.2907 15.3158 86.5114 14.9202L85.804 16.5747C86.895 17.1261 88.1059 17.3899 89.2209 17.3899C91.3549 17.3899 93.1533 16.4548 93.1533 14.8482C93.1533 13.9251 92.5898 13.1938 91.6666 12.8461Z" fill="white"/>
<path d="M100.048 8.8178V11.9709H96.8107V8.8178H94.4368V17.2101H96.8107V13.9371H100.048V17.2101H102.421V8.8178H100.048Z" fill="white"/>
<path d="M106.575 15.3758V13.8412H110.303V12.0668H106.575V10.6521H110.807V8.8178H104.225V17.2101H110.962V15.3758H106.575Z" fill="white"/>
<path d="M116.391 17.3779C117.938 17.3779 119.185 16.8144 120 15.7954L118.49 14.4286C117.962 15.064 117.315 15.4117 116.511 15.4117C115.133 15.4117 114.173 14.4526 114.173 13.0139C114.173 11.5753 115.133 10.6161 116.511 10.6161C117.315 10.6161 117.962 10.9638 118.49 11.5992L120 10.2325C119.185 9.21343 117.938 8.64995 116.391 8.64995C113.73 8.64995 111.776 10.4603 111.776 13.0139C111.776 15.5676 113.73 17.3779 116.391 17.3779Z" fill="white"/>
<ellipse cx="51.0126" cy="12.5001" rx="12.4171" ry="12.4171" fill="white"/>
<ellipse cx="34.7418" cy="16.7821" rx="1.28453" ry="1.28453" fill="white"/>
<path fill-rule="evenodd" clip-rule="evenodd" d="M31.9625 7.21171H29.0268V13.4884L24.5911 7.14062H21.8757V18.0662H24.8186L24.7831 12.1521L29.2542 18.1515H31.9625V7.21171ZM6.46423 12.529L10.7222 18.0665H7.02579L3.85544 13.645H3.74171V18.0665H0.798828V7.21191H3.74171V11.7329H3.8199L6.81254 7.21191H10.2104L6.46423 12.529ZM15.7837 18.3366C12.9545 18.3366 11.0068 16.4813 11.0068 13.8014V7.21191H13.9497V13.8085C13.9497 14.9103 14.7103 15.6709 15.7837 15.6709C16.8642 15.6709 17.6248 14.9103 17.6248 13.8156V7.21191H20.5676V13.8014C20.5676 16.4813 18.6199 18.3366 15.7837 18.3366Z" fill="white"/>
<path fill-rule="evenodd" clip-rule="evenodd" d="M41.79 13.8014C41.79 16.4813 43.7377 18.3366 46.5669 18.3366C49.4031 18.3366 51.3508 16.4813 51.3508 13.8014V7.21191H48.408V13.8156C48.408 14.9103 47.6474 15.6709 46.5669 15.6709C45.4935 15.6709 44.7329 14.9103 44.7329 13.8085V7.21191H41.79V13.8014ZM56.5331 9.82781L52.0051 18.0665H61.0398V15.4434H56.853L61.3597 7.21191H52.8581V9.82781H56.5331Z" fill="#0E3074"/>
</svg>
