<?xml version="1.0" encoding="UTF-8"?>
<svg id="Layer_2" data-name="Layer 2" xmlns="http://www.w3.org/2000/svg" viewBox="0 0 687.69 73.01">
  <defs>
    <style>
      .cls-1 {
        fill: #1d1d1b;
      }
    </style>
  </defs>
  <g id="Layer_10" data-name="Layer 10">
    <g id="_主文案" data-name="主文案">
      <polygon class="cls-1" points="398.02 72.02 420.9 35.49 399.9 2.82 409.41 2.82 426.26 29.46 442.74 2.82 451.96 2.82 430.88 35.58 454.13 72.02 444.53 72.02 425.89 41.7 407.15 72.02 398.02 72.02"/>
      <path class="cls-1" d="m483.69,72.02h-9.23l17.79-30.03-.09-.09c-5.88,4.54-20.31,3.2-25.51-3.3-8.04-7.87-7.77-23.59.75-31.16,13.55-13.16,39.46-4.15,38.41,16-.37,14.49-15.14,34.34-22.12,48.58Zm-14.4-49.05c-1.14,19.32,28.78,18.63,28.15.09,1-19.38-28.83-19.03-28.15-.09"/>
      <path class="cls-1" d="m519.18,72.02V0h8.1v28.81h.28c14.81-17.52,40.18-5.62,38.88,17.6,1.51,23.53-24.14,35.91-39.35,18.26h-.28v7.35h-7.63Zm7.53-24.85c-.21,24.59,31.76,24.41,31.25-.38.46-25.46-31.75-24.76-31.25.38"/>
      <polygon class="cls-1" points="39.88 2.58 52.25 2.58 52.25 72.01 39.88 72.01 39.88 43.09 12.37 43.09 12.37 72.01 0 72.01 0 2.58 12.37 2.58 12.37 30.72 39.88 30.72 39.88 2.58"/>
      <polygon class="cls-1" points="196.77 45.91 166.74 2.58 156.88 2.58 156.88 72.01 169.25 72.01 169.25 28.47 199.42 72.01 209.13 72.01 209.13 2.58 196.77 2.58 196.77 45.91"/>
      <path class="cls-1" d="m261.45,1.63c-46.82.8-46.82,70.44,0,71.24,46.82-.8,46.81-70.45,0-71.24m0,58.87c-30.57-.52-30.56-45.99,0-46.51,30.56.52,30.56,45.99,0,46.51"/>
      <path class="cls-1" d="m346.86,46.69c24.01-7.25,18.63-44.33-6.81-44.11h0s-26.29,0-26.29,0v69.43h12.37v-30.9l25.76,30.9h16.07l-21.1-25.31Zm-20.73-11.3V14.95c8.72.3,23.58-2.84,23.99,10.22-.41,13.06-15.29,9.92-23.99,10.22Z"/>
      <path class="cls-1" d="m104.57,1.63c-46.82.8-46.82,70.45,0,71.24,46.82-.8,46.81-70.45,0-71.24m0,58.87c-30.57-.52-30.56-45.99,0-46.51,30.56.52,30.56,45.99,0,46.51"/>
      <path class="cls-1" d="m664.05,72.01h-56.94c-12.89,0-23.38-10.49-23.38-23.38-.41-19.22-2.97-44.55,23.38-45.78,0,0,56.94,0,56.94,0,12.89,0,23.38,10.49,23.38,23.38.41,19.22,2.97,44.55-23.38,45.78m-56.94-65.64c-23.69.87-19.86,25.73-19.86,42.26,0,10.95,8.91,19.86,19.86,19.86h56.94c23.69-.87,19.86-25.73,19.86-42.26,0-10.95-8.91-19.86-19.86-19.86h-56.94Z"/>
      <path class="cls-1" d="m616.4,56.82c-5.93.09-10.86-4.2-11.52-10.1h4.36c.75,5.92,8.81,8.17,12.73,4.01,7.03-8.82-3.39-18.95-11.97-11.42h-3.91l1.93-20.6h18.17v3.86h-14.31l-1.22,12.23c18.44-10.39,26.69,21.5,5.73,22.02"/>
      <path class="cls-1" d="m651,56.47c-17.43,1.08-23.99-22.47-12.89-33.33,6.33-6.43,20.34-6.88,26.58.36l-3.09,3.09c-4.89-5.55-14.94-5.6-19.99-.41-5.5,4.97-5.48,16.82-.36,22.02,4.54,5.41,16.1,5.6,20.55.3,0,0,0-7.71,0-7.71h-10.1v-3.96h14.56v13.5c-3.18,4.48-9.41,6.13-15.27,6.14"/>
    </g>
  </g>
</svg>