<svg xmlns="http://www.w3.org/2000/svg" viewBox="0 0 73.27 76.09"><defs><style>.cls-1{fill:#fff;}</style></defs><g id="Layer_2" data-name="Layer 2"><g id="Layer_1-2" data-name="Layer 1"><path class="cls-1" d="M65,10.85c1.14-1.18,2.29-2.4,3.48-3.57a4.6,4.6,0,0,1,1.1-.57,3.51,3.51,0,0,1,.47,1c.4,4,.8,7.94,1.13,11.92.11,1.27-.43,1.75-1.72,1.64q-5.91-.52-11.8-1.11a3.77,3.77,0,0,1-1-.46,4.11,4.11,0,0,1,.53-1.12c1.18-1.25,2.41-2.44,3.77-3.81-1.37-1.12-2.6-2.24-3.95-3.21C37.27-2.56,9.29,9.44,6,33.46A32.47,32.47,0,0,0,67.29,52.19l.51-1.08c.86-1.77,2.37-2.44,3.88-1.72s2,2.27,1.21,4a36.67,36.67,0,0,1-9.16,12.74,38,38,0,0,1-60-11.79c-11.1-23,3.73-50.56,29-53.95,12-1.61,22.41,1.75,31.34,9.86l.44.4A3,3,0,0,0,65,10.85Z"/></g></g></svg>