<?xml version="1.0" encoding="UTF-8"?>
<svg id="Layer_2" data-name="Layer 2" xmlns="http://www.w3.org/2000/svg" viewBox="0 0 181.82 61.85">
  <g id="Layer_10" data-name="Layer 10">
    <g>
      <path d="m29.13,19.05c-.88-.44-1.61-1.05-2.19-1.85-.58-.8-.94-1.73-1.07-2.79h3.21c.17.7.52,1.28,1.04,1.72.52.45,1.17.67,1.94.67.91,0,1.66-.31,2.24-.92.58-.62.87-1.46.87-2.54s-.29-1.93-.88-2.51c-.59-.57-1.31-.86-2.18-.86-.62,0-1.16.1-1.61.3-.45.2-.86.47-1.24.81h-2.82L27.45.41h9.69v2.75h-7.02l-.44,4.73c.33-.22.74-.42,1.24-.58.5-.16,1.09-.24,1.76-.24,1.09,0,2.08.26,2.97.77.89.51,1.59,1.24,2.11,2.18.52.94.78,2.01.78,3.21,0,1.27-.27,2.39-.82,3.38-.54.99-1.3,1.75-2.28,2.29-.98.54-2.1.81-3.38.81-1.07,0-2.05-.22-2.93-.66Z"/>
      <path d="m50.06.63c.9.42,1.6,1.02,2.11,1.79.51.77.76,1.65.76,2.65,0,1.1-.28,2-.84,2.7-.56.7-1.26,1.19-2.08,1.46v.08c1.05.34,1.91.94,2.58,1.79.66.85,1,1.91,1,3.17,0,1.1-.29,2.06-.87,2.89-.58.83-1.37,1.46-2.37,1.9-1,.44-2.12.66-3.37.66s-2.36-.22-3.35-.66c-.99-.44-1.77-1.07-2.34-1.89-.57-.82-.85-1.78-.85-2.88,0-1.27.33-2.33,1-3.19.66-.86,1.51-1.46,2.55-1.8v-.08c-.85-.33-1.55-.83-2.1-1.5-.55-.68-.83-1.56-.83-2.66,0-.99.26-1.88.78-2.65.52-.77,1.23-1.37,2.12-1.79.9-.42,1.92-.63,3.06-.63s2.16.21,3.06.63Zm-5.37,15.44c.6.52,1.36.78,2.29.78s1.73-.27,2.33-.81c.6-.54.91-1.28.91-2.22s-.31-1.68-.92-2.26c-.61-.58-1.39-.87-2.32-.87s-1.65.3-2.27.9c-.61.6-.92,1.35-.92,2.26,0,.96.3,1.7.89,2.22Zm.38-8.89c.47.47,1.1.71,1.92.71s1.45-.24,1.93-.71c.47-.47.71-1.1.71-1.89,0-.72-.25-1.31-.74-1.77-.49-.46-1.13-.69-1.9-.69s-1.41.23-1.89.69c-.48.46-.73,1.06-.73,1.8s.23,1.39.7,1.86Z"/>
      <path d="m67.25,16.82c-.55.92-1.29,1.63-2.21,2.13-.92.51-1.97.76-3.15.76s-2.22-.25-3.15-.76c-.92-.5-1.66-1.22-2.21-2.15-.55-.92-.85-2-.88-3.21-.03-1.71-.05-2.94-.05-3.67s.02-1.97.05-3.65c.03-1.2.33-2.26.88-3.2.55-.93,1.29-1.65,2.21-2.16.92-.5,1.97-.76,3.15-.76s2.2.26,3.13.77,1.67,1.24,2.23,2.17c.55.93.85,2,.88,3.2.03.84.05,2.06.05,3.65s-.02,2.82-.05,3.67c-.03,1.22-.33,2.28-.88,3.2Zm-5.36-.01c.97,0,1.7-.33,2.2-.98.5-.65.78-1.59.83-2.83.03-.72.05-1.75.05-3.08s-.02-2.35-.05-3.06c-.05-1.23-.33-2.18-.83-2.83-.5-.65-1.23-.98-2.18-.98-1.92,0-2.93,1.27-3.03,3.8-.03,1.4-.05,2.42-.05,3.06s.02,1.64.05,3.08c.1,2.54,1.1,3.8,3,3.8Z"/>
      <path d="m81.86,16.82c-.55.92-1.29,1.63-2.21,2.13-.92.51-1.97.76-3.15.76s-2.22-.25-3.15-.76c-.92-.5-1.66-1.22-2.21-2.15-.55-.92-.85-2-.88-3.21-.03-1.71-.05-2.94-.05-3.67s.02-1.97.05-3.65c.03-1.2.33-2.26.88-3.2.55-.93,1.29-1.65,2.21-2.16.92-.5,1.97-.76,3.15-.76s2.2.26,3.13.77,1.67,1.24,2.23,2.17c.55.93.85,2,.88,3.2.03.84.05,2.06.05,3.65s-.02,2.82-.05,3.67c-.03,1.22-.33,2.28-.88,3.2Zm-5.36-.01c.97,0,1.7-.33,2.2-.98.5-.65.78-1.59.83-2.83.03-.72.05-1.75.05-3.08s-.02-2.35-.05-3.06c-.05-1.23-.33-2.18-.83-2.83-.5-.65-1.23-.98-2.18-.98-1.92,0-2.93,1.27-3.03,3.8-.03,1.4-.05,2.42-.05,3.06s.02,1.64.05,3.08c.1,2.54,1.1,3.8,3,3.8Z"/>
      <path d="m92.58,5.52h2.95l4.51,8.12h.05l4.53-8.12h2.93v13.77h-3.11v-8.53h-.05l-3.6,6.76h-1.45l-3.6-6.76h-.05v8.53h-3.11V5.52Z"/>
      <path d="m117.02.41h3.42l7.46,18.88h-3.37l-1.81-4.86h-8.11l-1.81,4.86h-3.26L117.02.41Zm4.64,11.2l-2.98-7.91h-.05l-2.95,7.91h5.98Z"/>
      <path d="m140.05,5.09l-3.78,1.08,2.43,3.11-1.94,1.44-2.25-3.29-2.15,3.31-1.97-1.46,2.38-3.11-3.78-1.08.83-2.16,3.6,1.26-.1-3.78h2.38l-.1,3.78,3.63-1.26.83,2.16Z"/>
      <path d="m151.34,14.03h-.05c-.5.57-1.12,1-1.85,1.31-.73.31-1.47.46-2.21.46-1,0-1.89-.21-2.68-.63-.79-.42-1.4-1.03-1.85-1.82-.45-.8-.67-1.73-.67-2.81v-5.01h3.11v4.5c0,.98.23,1.74.7,2.29.47.55,1.13.82,1.99.82,1,0,1.83-.3,2.47-.91.65-.61.97-1.45.97-2.53v-4.16h3.11v13.77h-3.03v-5.27Z"/>
      <path d="m0,37.31h12.84v2.8H3.26v5.01h8.91v2.77H3.26v5.5h10.05v2.8H0v-18.88Zm4.86-4.98c.35.36.53.8.53,1.31s-.18.92-.54,1.28c-.36.36-.81.54-1.35.54s-.95-.18-1.31-.54c-.35-.36-.53-.79-.53-1.28s.17-.95.52-1.31c.35-.36.79-.54,1.32-.54s1.01.18,1.36.54Zm3.19,0c.35-.36.8-.54,1.33-.54s1,.18,1.35.53c.35.35.52.79.52,1.32,0,.5-.18.92-.53,1.28-.35.36-.8.54-1.33.54s-.96-.18-1.32-.54-.54-.79-.54-1.28.18-.95.53-1.31Z"/>
      <path d="m15.41,42.43h2.95l4.51,8.12h.05l4.53-8.12h2.93v13.77h-3.11v-8.53h-.05l-3.6,6.76h-1.45l-3.6-6.76h-.05v8.53h-3.11v-13.77Z"/>
      <path d="m33.95,42.43h3.11v5.42h2.07l3.39-5.42h3.6l-4.56,6.6,4.74,7.17h-3.65l-3.5-5.73h-2.1v5.73h-3.11v-13.77Z"/>
      <path d="m56.3,42.77c.85.4,1.51.99,2.01,1.77.49.78.74,1.71.74,2.79v8.86h-2.9v-1.88h-.08c-.35.58-.92,1.08-1.71,1.49-.79.41-1.7.62-2.72.62-.85,0-1.63-.18-2.36-.53-.73-.35-1.3-.85-1.74-1.49-.43-.64-.65-1.38-.65-2.22,0-1.39.53-2.48,1.61-3.28,1.07-.8,2.43-1.19,4.09-1.19,1.23,0,2.34.21,3.34.62v-.95c0-.86-.25-1.51-.76-1.97-.51-.45-1.19-.68-2.03-.68-1.36,0-2.54.59-3.52,1.77l-1.94-1.77c.64-.77,1.46-1.39,2.46-1.86,1-.47,2.11-.71,3.31-.71,1.05,0,2,.2,2.85.6Zm-5.59,10.68c.43.36,1.04.54,1.81.54.93,0,1.74-.27,2.41-.81.67-.54,1.01-1.21,1.01-2.02v-.75c-.36-.17-.82-.32-1.36-.44-.54-.12-1.13-.18-1.75-.18-.79,0-1.45.19-1.98.57-.53.38-.79.91-.79,1.59,0,.63.22,1.13.65,1.49Z"/>
      <path d="m70.1,51.39h-2.64l-2.49,4.8h-3.31l2.77-5.16c-.93-.33-1.64-.85-2.11-1.57-.47-.72-.71-1.58-.71-2.57,0-1.4.48-2.5,1.44-3.29.96-.79,2.19-1.18,3.69-1.18h6.5v13.77h-3.13v-4.8Zm-4.67-2.99c.41.35.97.53,1.7.53h2.98v-3.93h-2.98c-.74,0-1.31.18-1.71.53-.4.35-.6.83-.6,1.43s.2,1.1.61,1.45Z"/>
      <path d="m84.16,40.99c.81-1.88,2.1-3.06,3.86-3.52.53-.14,1.34-.27,2.41-.41.81-.1,1.49-.21,2.03-.31.54-.1,1.1-.27,1.67-.49l.62,2.52c-.59.24-1.13.41-1.62.51-.49.1-1.16.21-2.01.33-1.12.14-1.98.3-2.56.49-1.57.57-2.46,2.11-2.67,4.62.41-.74.99-1.31,1.74-1.71.74-.4,1.61-.6,2.59-.6s1.9.26,2.76.77c.85.51,1.55,1.29,2.08,2.34.53,1.04.8,2.34.8,3.88,0,1.42-.27,2.66-.82,3.73-.54,1.06-1.3,1.88-2.28,2.44-.98.57-2.08.85-3.33.85-2.02,0-3.61-.73-4.76-2.2-1.16-1.46-1.73-3.6-1.73-6.41s.41-4.95,1.22-6.83Zm2.87,11.42c.55.87,1.35,1.3,2.38,1.3,1.12,0,1.94-.42,2.45-1.25.51-.83.76-1.89.76-3.17s-.29-2.3-.88-3.03c-.59-.74-1.36-1.1-2.3-1.1s-1.77.37-2.36,1.12c-.59.75-.88,1.7-.88,2.86,0,1.32.28,2.41.83,3.28Z"/>
      <path d="m106.9,42.77c.85.4,1.51.99,2.01,1.77.49.78.74,1.71.74,2.79v8.86h-2.9v-1.88h-.08c-.35.58-.92,1.08-1.71,1.49-.79.41-1.7.62-2.72.62-.85,0-1.63-.18-2.36-.53-.73-.35-1.3-.85-1.74-1.49-.43-.64-.65-1.38-.65-2.22,0-1.39.53-2.48,1.61-3.28,1.07-.8,2.43-1.19,4.09-1.19,1.23,0,2.34.21,3.34.62v-.95c0-.86-.25-1.51-.76-1.97-.51-.45-1.19-.68-2.03-.68-1.36,0-2.54.59-3.52,1.77l-1.94-1.77c.64-.77,1.46-1.39,2.46-1.86,1-.47,2.11-.71,3.31-.71,1.05,0,2,.2,2.85.6Zm-5.59,10.68c.43.36,1.04.54,1.81.54.93,0,1.74-.27,2.41-.81.67-.54,1.01-1.21,1.01-2.02v-.75c-.36-.17-.82-.32-1.36-.44-.54-.12-1.13-.18-1.75-.18-.79,0-1.45.19-1.98.57-.53.38-.79.91-.79,1.59,0,.63.22,1.13.65,1.49Z"/>
      <path d="m115.75,45.05h-4.58v-2.62h12.3v2.62h-4.58v11.15h-3.13v-11.15Z"/>
      <path d="m133.65,42.77c.85.4,1.51.99,2.01,1.77.49.78.74,1.71.74,2.79v8.86h-2.9v-1.88h-.08c-.35.58-.92,1.08-1.71,1.49-.79.41-1.7.62-2.72.62-.85,0-1.63-.18-2.36-.53-.73-.35-1.3-.85-1.74-1.49-.43-.64-.65-1.38-.65-2.22,0-1.39.53-2.48,1.61-3.28,1.07-.8,2.43-1.19,4.09-1.19,1.23,0,2.34.21,3.34.62v-.95c0-.86-.25-1.51-.76-1.97-.51-.45-1.19-.68-2.03-.68-1.36,0-2.54.59-3.52,1.77l-1.94-1.77c.64-.77,1.46-1.39,2.46-1.86,1-.47,2.11-.71,3.31-.71,1.05,0,2,.2,2.85.6Zm-5.59,10.68c.43.36,1.04.54,1.81.54.93,0,1.74-.27,2.41-.81.67-.54,1.01-1.21,1.01-2.02v-.75c-.36-.17-.82-.32-1.36-.44-.54-.12-1.13-.18-1.75-.18-.79,0-1.45.19-1.98.57-.53.38-.79.91-.79,1.59,0,.63.22,1.13.65,1.49Z"/>
      <path d="m139.79,42.43h2.9v1.98h.05c.45-.63,1.06-1.16,1.83-1.59.77-.43,1.63-.64,2.58-.64,1.16,0,2.21.29,3.15.87.94.58,1.68,1.41,2.23,2.48.54,1.07.82,2.32.82,3.74s-.28,2.73-.85,3.82c-.57,1.09-1.34,1.92-2.3,2.49-.97.57-2.02.86-3.16.86-.83,0-1.6-.17-2.32-.5-.72-.33-1.28-.74-1.7-1.22h-.1v7.14h-3.11v-19.42Zm4.05,10.07c.68.81,1.57,1.21,2.65,1.21s1.92-.4,2.59-1.19c.67-.8,1.01-1.86,1.01-3.2s-.34-2.45-1.02-3.24c-.68-.79-1.55-1.18-2.6-1.18-.64,0-1.24.17-1.8.51-.56.34-1.01.85-1.35,1.53-.34.68-.51,1.49-.51,2.43,0,1.28.34,2.33,1.02,3.13Z"/>
      <path d="m158.51,55.53c-1.04-.6-1.84-1.44-2.42-2.53-.58-1.09-.87-2.33-.87-3.74s.29-2.57.87-3.65c.58-1.08,1.39-1.92,2.42-2.53,1.04-.61,2.2-.91,3.5-.91s2.35.3,3.33.9c.98.6,1.74,1.43,2.29,2.51.55,1.07.83,2.29.83,3.66,0,.5,0,.87-.03,1.1h-10.02c.16,1.05.56,1.88,1.2,2.52.65.63,1.54.95,2.68.95.79,0,1.52-.16,2.19-.48.66-.32,1.21-.72,1.64-1.22l1.79,1.8c-.55.74-1.36,1.34-2.41,1.81-1.05.47-2.18.71-3.39.71-1.36,0-2.56-.3-3.6-.9Zm6.84-7.48c-.03-.98-.37-1.78-1.01-2.4-.64-.63-1.42-.94-2.33-.94-.97,0-1.78.3-2.43.91-.66.61-1.05,1.42-1.19,2.43h6.97Z"/>
      <path d="m178.68,51.39h-2.64l-2.49,4.8h-3.31l2.77-5.16c-.93-.33-1.64-.85-2.11-1.57-.47-.72-.71-1.58-.71-2.57,0-1.4.48-2.5,1.44-3.29.96-.79,2.19-1.18,3.69-1.18h6.5v13.77h-3.13v-4.8Zm-4.67-2.99c.41.35.97.53,1.7.53h2.98v-3.93h-2.98c-.74,0-1.31.18-1.71.53-.4.35-.6.83-.6,1.43s.2,1.1.61,1.45Z"/>
    </g>
  </g>
</svg>