<?xml version="1.0" encoding="UTF-8"?>
<svg id="Layer_2" data-name="Layer 2" xmlns="http://www.w3.org/2000/svg" viewBox="0 0 188.63 62.08">
  <g id="Layer_10" data-name="Layer 10">
    <g>
      <path d="m13.69,18.69c-1.36.83-2.9,1.25-4.65,1.25s-3.28-.42-4.65-1.25c-1.37-.83-2.45-1.99-3.22-3.48-.78-1.49-1.17-3.19-1.17-5.11s.39-3.68,1.18-5.18c.79-1.5,1.87-2.65,3.25-3.47C5.81.64,7.35.23,9.04.23c1.4,0,2.71.26,3.94.78,1.23.52,2.23,1.23,3,2.12l-2.12,2.11c-.69-.68-1.43-1.19-2.21-1.53-.79-.33-1.67-.5-2.65-.5-1.07,0-2.03.28-2.87.84-.85.56-1.51,1.35-1.98,2.39-.47,1.04-.71,2.26-.71,3.66s.24,2.55.73,3.6c.48,1.04,1.16,1.85,2.02,2.42.86.57,1.86.85,2.98.85s2.14-.26,2.95-.78c.81-.52,1.46-1.21,1.94-2.07l2.49,1.34c-.54,1.34-1.48,2.42-2.84,3.25Z"/>
      <path d="m18.77,5.75h6.63c1.43,0,2.55.3,3.35.91.8.61,1.2,1.47,1.2,2.58,0,.77-.17,1.4-.51,1.9-.34.5-.83.9-1.49,1.21v.05c.78.26,1.38.66,1.81,1.21.43.55.65,1.2.65,1.95,0,1.3-.45,2.29-1.36,2.95-.91.67-2.08,1-3.53,1h-6.76V5.75Zm5.59,5.68c.79,0,1.39-.14,1.8-.42.41-.28.61-.7.61-1.25s-.2-.95-.6-1.25c-.4-.3-1.01-.45-1.84-.45h-2.46v3.37h2.49Zm.34,5.78c1.69,0,2.54-.6,2.54-1.8,0-.6-.22-1.06-.66-1.39-.44-.33-1.07-.49-1.9-.49h-2.8v3.67h2.82Z"/>
      <path d="m35.48,18.86c-1.04-.6-1.84-1.44-2.42-2.53-.58-1.09-.87-2.33-.87-3.74s.29-2.57.87-3.65c.58-1.08,1.39-1.92,2.42-2.53,1.04-.61,2.2-.91,3.5-.91s2.35.3,3.33.9c.98.6,1.74,1.43,2.29,2.51.55,1.07.83,2.29.83,3.66,0,.5,0,.87-.03,1.1h-10.02c.16,1.05.56,1.88,1.2,2.52.65.63,1.54.95,2.68.95.79,0,1.52-.16,2.19-.48.66-.32,1.21-.72,1.64-1.22l1.79,1.8c-.55.74-1.36,1.34-2.41,1.81-1.05.47-2.18.71-3.39.71-1.36,0-2.56-.3-3.6-.9Zm6.84-7.48c-.03-.98-.37-1.78-1.01-2.4-.64-.63-1.42-.94-2.33-.94-.97,0-1.78.3-2.43.91-.66.61-1.05,1.42-1.19,2.43h6.97Z"/>
      <path d="m47.99,5.75h2.9v1.98h.05c.45-.63,1.06-1.16,1.83-1.59.77-.43,1.63-.64,2.58-.64,1.16,0,2.21.29,3.15.87.94.58,1.68,1.41,2.23,2.48.54,1.07.82,2.32.82,3.74s-.28,2.73-.85,3.82c-.57,1.09-1.34,1.92-2.3,2.49-.97.57-2.02.86-3.16.86-.83,0-1.6-.17-2.32-.5-.72-.33-1.28-.74-1.7-1.22h-.1v7.14h-3.11V5.75Zm4.05,10.07c.68.81,1.57,1.21,2.65,1.21s1.92-.4,2.59-1.19c.67-.8,1.01-1.86,1.01-3.2s-.34-2.45-1.02-3.24c-.68-.79-1.55-1.18-2.6-1.18-.64,0-1.24.17-1.8.51-.56.34-1.01.85-1.35,1.53-.34.68-.51,1.49-.51,2.43,0,1.28.34,2.33,1.02,3.13Z"/>
      <path d="m67.25,12.59l-4.82-6.83h3.83l3.11,4.83,3.03-4.83h3.75l-4.87,6.94,4.97,6.83h-3.83l-3.26-4.83-3.13,4.83h-3.81l5.02-6.94Z"/>
      <path d="m78.39,5.75h11.76v13.77h-3.13v-11.15h-5.52v11.15h-3.11V5.75Z"/>
      <path d="m93.69,5.75h2.9v1.98h.05c.45-.63,1.06-1.16,1.83-1.59.77-.43,1.63-.64,2.58-.64,1.16,0,2.21.29,3.15.87.94.58,1.68,1.41,2.23,2.48.54,1.07.82,2.32.82,3.74s-.28,2.73-.85,3.82c-.57,1.09-1.34,1.92-2.3,2.49-.97.57-2.02.86-3.16.86-.83,0-1.6-.17-2.32-.5-.72-.33-1.28-.74-1.7-1.22h-.1v7.14h-3.11V5.75Zm4.05,10.07c.68.81,1.57,1.21,2.65,1.21s1.92-.4,2.59-1.19c.67-.8,1.01-1.86,1.01-3.2s-.34-2.45-1.02-3.24c-.68-.79-1.55-1.18-2.6-1.18-.64,0-1.24.17-1.8.51-.56.34-1.01.85-1.35,1.53-.34.68-.51,1.49-.51,2.43,0,1.28.34,2.33,1.02,3.13Z"/>
      <path d="m109.9,8.94c.57-1.08,1.37-1.92,2.41-2.53,1.04-.61,2.24-.91,3.6-.91s2.59.3,3.63.91c1.04.61,1.84,1.45,2.41,2.53s.85,2.31.85,3.7-.28,2.62-.85,3.7-1.37,1.92-2.41,2.52c-1.04.6-2.24.9-3.63.9s-2.59-.3-3.63-.9c-1.04-.6-1.83-1.44-2.4-2.52-.56-1.08-.84-2.31-.84-3.7s.28-2.62.85-3.7Zm3.34,6.86c.64.82,1.53,1.23,2.67,1.23s2.03-.41,2.67-1.23c.64-.82.96-1.88.96-3.16s-.32-2.34-.96-3.17c-.64-.83-1.53-1.25-2.67-1.25s-2.03.42-2.67,1.25c-.64.83-.96,1.89-.96,3.17s.32,2.34.96,3.16Z"/>
      <path d="m133.96,14.26h-.05c-.5.57-1.12,1-1.85,1.31-.73.31-1.47.46-2.21.46-1,0-1.89-.21-2.68-.63-.79-.42-1.4-1.03-1.85-1.82-.45-.8-.67-1.73-.67-2.81v-5.01h3.11v4.5c0,.98.23,1.74.7,2.29.47.55,1.13.82,1.99.82,1,0,1.83-.3,2.47-.91.65-.61.97-1.45.97-2.53v-4.16h3.11v13.77h-3.03v-5.27Z"/>
      <path d="m149.76,13.82h-5.93v5.7h-3.11V5.75h3.11v5.45h5.93v-5.45h3.13v13.77h-3.13v-5.7Z"/>
      <path d="m156.46,5.75h3.11v3.85h3.08c1.59,0,2.86.39,3.82,1.18.96.79,1.44,2.06,1.44,3.8,0,1.59-.47,2.81-1.41,3.66-.94.85-2.19,1.27-3.74,1.27h-6.29V5.75Zm5.52,11.25c.92,0,1.6-.19,2.06-.57.46-.38.69-.99.69-1.85s-.23-1.51-.69-1.86c-.46-.35-1.14-.53-2.06-.53h-2.41v4.8h2.41Zm7.92-11.25h3.11v13.77h-3.11V5.75Z"/>
      <path d="m176.43,5.75h3.11v9.3h.08l5.9-9.3h3.11v13.77h-3.11v-9.33h-.1l-5.88,9.33h-3.11V5.75Zm3.37-3.01c-.81-.7-1.29-1.62-1.42-2.75h2.51c.1.51.31.92.63,1.23.32.31.75.46,1.31.46s.99-.15,1.31-.46c.32-.31.53-.72.63-1.23h2.49c-.14,1.11-.61,2.03-1.41,2.74-.8.71-1.81,1.07-3.02,1.07s-2.22-.35-3.03-1.05Z"/>
      <path d="m59.85,55.85c-1.02-.54-1.8-1.21-2.33-2.02l1.89-1.72c.45.57.98,1.03,1.61,1.39s1.33.54,2.12.54c1.07,0,1.93-.3,2.58-.91.65-.61,1.05-1.45,1.2-2.53h-6.58v-2.36h6.58c-.19-1.03-.61-1.82-1.26-2.38-.65-.56-1.49-.84-2.52-.84-.69,0-1.32.14-1.89.41-.57.27-1.05.62-1.45,1.03l-1.97-1.77c.59-.68,1.36-1.24,2.32-1.66.96-.42,1.96-.63,3.02-.63,1.4,0,2.62.31,3.68.92,1.05.62,1.86,1.46,2.43,2.54s.85,2.3.85,3.65-.28,2.6-.84,3.69c-.56,1.09-1.36,1.94-2.41,2.54-1.04.61-2.26.91-3.64.91-1.24,0-2.37-.27-3.39-.81Z"/>
      <path d="m72.9,42.66h3.11v5.42h2.07l3.39-5.42h3.6l-4.56,6.6,4.74,7.17h-3.65l-3.5-5.73h-2.1v5.73h-3.11v-13.77Z"/>
      <path d="m87.29,42.66h2.9v1.98h.05c.45-.63,1.06-1.16,1.83-1.59.77-.43,1.63-.64,2.58-.64,1.16,0,2.21.29,3.15.87.94.58,1.68,1.41,2.23,2.48.54,1.07.82,2.32.82,3.74s-.28,2.73-.85,3.82c-.57,1.09-1.34,1.92-2.3,2.49-.97.57-2.02.86-3.16.86-.83,0-1.6-.17-2.32-.5-.72-.33-1.28-.74-1.7-1.22h-.1v7.14h-3.11v-19.42Zm4.05,10.07c.68.81,1.57,1.21,2.65,1.21s1.92-.4,2.59-1.19c.67-.8,1.01-1.86,1.01-3.2s-.34-2.45-1.02-3.24c-.68-.79-1.55-1.18-2.6-1.18-.64,0-1.24.17-1.8.51-.56.34-1.01.85-1.35,1.53-.34.68-.51,1.49-.51,2.43,0,1.28.34,2.33,1.02,3.13Z"/>
      <path d="m111.87,43.01c.85.4,1.51.99,2.01,1.77.49.78.74,1.71.74,2.79v8.86h-2.9v-1.88h-.08c-.35.58-.92,1.08-1.71,1.49-.79.41-1.7.62-2.72.62-.85,0-1.63-.18-2.36-.53-.73-.35-1.3-.85-1.74-1.49-.43-.64-.65-1.38-.65-2.22,0-1.39.53-2.48,1.61-3.28,1.07-.8,2.43-1.19,4.09-1.19,1.23,0,2.34.21,3.34.62v-.95c0-.86-.25-1.51-.76-1.97-.51-.45-1.19-.68-2.03-.68-1.36,0-2.54.59-3.52,1.77l-1.94-1.77c.64-.77,1.46-1.39,2.46-1.86,1-.47,2.11-.71,3.31-.71,1.05,0,2,.2,2.85.6Zm-5.59,10.68c.43.36,1.04.54,1.81.54.93,0,1.74-.27,2.41-.81.67-.54,1.01-1.21,1.01-2.02v-.75c-.36-.17-.82-.32-1.36-.44-.54-.12-1.13-.18-1.75-.18-.79,0-1.45.19-1.98.57-.53.38-.79.91-.79,1.59,0,.63.22,1.13.65,1.49Z"/>
      <path d="m127.05,50.73h-5.93v5.7h-3.11v-13.77h3.11v5.45h5.93v-5.45h3.13v13.77h-3.13v-5.7Z"/>
    </g>
  </g>
</svg>