<?xml version="1.0" encoding="UTF-8"?>
<svg id="Layer_2" data-name="Layer 2" xmlns="http://www.w3.org/2000/svg" viewBox="0 0 163.97 61.44">
  <g id="Layer_10" data-name="Layer 10">
    <g>
      <path d="m6.86,18.88h-3.21V3.52h-.05L0,6.45v-3.24L4.17,0h2.69v18.88Z"/>
      <path d="m15.17,15.54c.4.39.6.88.6,1.46,0,.55-.2,1.02-.61,1.41-.41.39-.89.59-1.46.59s-1.03-.2-1.42-.59c-.4-.39-.6-.86-.6-1.41,0-.58.19-1.07.58-1.46.39-.39.87-.59,1.44-.59s1.08.2,1.48.59Z"/>
      <path d="m21.62,18.64c-.88-.44-1.61-1.05-2.19-1.85-.58-.8-.94-1.73-1.07-2.79h3.21c.17.7.52,1.28,1.04,1.72.52.45,1.17.67,1.94.67.91,0,1.66-.31,2.24-.92.58-.62.87-1.46.87-2.54s-.29-1.93-.88-2.51c-.59-.57-1.31-.86-2.18-.86-.62,0-1.16.1-1.61.3-.45.2-.86.47-1.24.81h-2.82l1.01-10.66h9.69v2.75h-7.02l-.44,4.73c.33-.22.74-.42,1.24-.58.5-.16,1.09-.24,1.76-.24,1.09,0,2.08.26,2.97.77.89.51,1.59,1.24,2.11,2.18.52.94.78,2.01.78,3.21,0,1.27-.27,2.39-.82,3.38-.54.99-1.3,1.75-2.28,2.29-.98.54-2.1.81-3.38.81-1.07,0-2.05-.22-2.93-.66Z"/>
      <path d="m34.16,0h3.26v7.99h3.08l4.76-7.99h3.83l-5.98,9.33,6.45,9.56h-3.88l-5.21-8.02h-3.06v8.02h-3.26V0Z"/>
      <path d="m58.6,5.11h6.63c1.43,0,2.55.3,3.35.91.8.61,1.2,1.47,1.2,2.58,0,.77-.17,1.4-.51,1.9-.34.5-.83.9-1.49,1.21v.05c.78.26,1.38.66,1.81,1.21.43.55.65,1.2.65,1.95,0,1.3-.45,2.29-1.36,2.95-.91.67-2.08,1-3.53,1h-6.76V5.11Zm5.59,5.68c.79,0,1.39-.14,1.8-.42.41-.28.61-.7.61-1.25s-.2-.95-.6-1.25c-.4-.3-1.01-.45-1.84-.45h-2.46v3.37h2.49Zm.34,5.78c1.69,0,2.54-.6,2.54-1.8,0-.6-.22-1.06-.66-1.39-.44-.33-1.07-.49-1.9-.49h-2.8v3.67h2.82Z"/>
      <path d="m72.82,5.11h3.11v3.85h3.08c1.59,0,2.86.39,3.82,1.18.96.79,1.44,2.06,1.44,3.8,0,1.59-.47,2.81-1.41,3.66-.94.85-2.19,1.27-3.74,1.27h-6.29V5.11Zm5.52,11.25c.92,0,1.6-.19,2.06-.57.46-.38.69-.99.69-1.85s-.23-1.51-.69-1.86c-.46-.35-1.14-.53-2.06-.53h-2.41v4.8h2.41Zm7.92-11.25h3.11v13.77h-3.11V5.11Z"/>
      <path d="m102.09,5.51c.94.44,1.72,1.01,2.34,1.73l-1.97,1.88c-.38-.45-.85-.81-1.4-1.1-.55-.29-1.17-.44-1.86-.44-1.21,0-2.15.39-2.82,1.18-.67.79-1.01,1.85-1.01,3.19s.33,2.45.98,3.25c.66.8,1.58,1.19,2.77,1.19,1.47,0,2.7-.68,3.7-2.03l1.92,1.82c-.54.84-1.31,1.54-2.33,2.09-1.02.56-2.16.84-3.42.84-1.38,0-2.59-.3-3.63-.91-1.04-.61-1.83-1.46-2.4-2.54-.56-1.09-.84-2.32-.84-3.69s.28-2.57.85-3.65c.57-1.08,1.38-1.93,2.43-2.54,1.05-.62,2.28-.92,3.68-.92,1.05,0,2.05.22,2.99.66Z"/>
      <path d="m106.82,8.3c.57-1.08,1.37-1.92,2.41-2.53,1.04-.61,2.24-.91,3.6-.91s2.59.3,3.63.91c1.04.61,1.84,1.45,2.41,2.53s.85,2.31.85,3.7-.28,2.62-.85,3.7-1.37,1.92-2.41,2.52c-1.04.6-2.24.9-3.63.9s-2.59-.3-3.63-.9c-1.04-.6-1.83-1.44-2.4-2.52-.56-1.08-.84-2.31-.84-3.7s.28-2.62.85-3.7Zm3.34,6.86c.64.82,1.53,1.23,2.67,1.23s2.03-.41,2.67-1.23c.64-.82.96-1.88.96-3.16s-.32-2.34-.96-3.17c-.64-.83-1.53-1.25-2.67-1.25s-2.03.42-2.67,1.25c-.64.83-.96,1.89-.96,3.17s.32,2.34.96,3.16Z"/>
      <path d="m122.38,5.11h3.11v5.42h2.07l3.39-5.42h3.6l-4.56,6.6,4.74,7.17h-3.65l-3.5-5.73h-2.1v5.73h-3.11V5.11Z"/>
      <path d="m135.98,8.3c.57-1.08,1.37-1.92,2.41-2.53,1.04-.61,2.24-.91,3.6-.91s2.59.3,3.63.91c1.04.61,1.84,1.45,2.41,2.53s.85,2.31.85,3.7-.28,2.62-.85,3.7-1.37,1.92-2.41,2.52c-1.04.6-2.24.9-3.63.9s-2.59-.3-3.63-.9c-1.04-.6-1.83-1.44-2.4-2.52-.56-1.08-.84-2.31-.84-3.7s.28-2.62.85-3.7Zm3.34,6.86c.64.82,1.53,1.23,2.67,1.23s2.03-.41,2.67-1.23c.64-.82.96-1.88.96-3.16s-.32-2.34-.96-3.17c-.64-.83-1.53-1.25-2.67-1.25s-2.03.42-2.67,1.25c-.64.83-.96,1.89-.96,3.17s.32,2.34.96,3.16Z"/>
      <path d="m154.03,18.22c-1.04-.6-1.84-1.44-2.42-2.53-.58-1.09-.87-2.33-.87-3.74s.29-2.57.87-3.65c.58-1.08,1.39-1.92,2.42-2.53,1.04-.61,2.2-.91,3.5-.91s2.35.3,3.33.9c.98.6,1.74,1.43,2.29,2.51.55,1.07.83,2.29.83,3.66,0,.5,0,.87-.03,1.1h-10.02c.16,1.05.56,1.88,1.2,2.52.65.63,1.54.95,2.68.95.79,0,1.52-.16,2.19-.48.66-.32,1.21-.72,1.64-1.22l1.79,1.8c-.55.74-1.36,1.34-2.41,1.81-1.05.47-2.18.71-3.39.71-1.36,0-2.56-.3-3.6-.9Zm6.84-7.48c-.03-.98-.37-1.78-1.01-2.4-.64-.63-1.42-.94-2.33-.94-.97,0-1.78.3-2.43.91-.66.61-1.05,1.42-1.19,2.43h6.97Z"/>
      <path d="m4.4,42.02h2.9v1.98h.05c.45-.63,1.06-1.16,1.83-1.59.77-.43,1.63-.64,2.58-.64,1.16,0,2.21.29,3.15.87.94.58,1.68,1.41,2.23,2.48.54,1.07.82,2.32.82,3.74s-.28,2.73-.85,3.82c-.57,1.09-1.34,1.92-2.3,2.49-.97.57-2.02.86-3.16.86-.83,0-1.6-.17-2.32-.5-.72-.33-1.28-.74-1.7-1.22h-.1v7.14h-3.11v-19.42Zm4.05,10.07c.68.81,1.57,1.21,2.65,1.21s1.92-.4,2.59-1.19c.67-.8,1.01-1.86,1.01-3.2s-.34-2.45-1.02-3.24c-.68-.79-1.55-1.18-2.6-1.18-.64,0-1.24.17-1.8.51-.56.34-1.01.85-1.35,1.53-.34.68-.51,1.49-.51,2.43,0,1.28.34,2.33,1.02,3.13Z"/>
      <path d="m28.98,42.36c.85.4,1.51.99,2.01,1.77.49.78.74,1.71.74,2.79v8.86h-2.9v-1.88h-.08c-.35.58-.92,1.08-1.71,1.49-.79.41-1.7.62-2.72.62-.85,0-1.63-.18-2.36-.53-.73-.35-1.3-.85-1.74-1.49-.43-.64-.65-1.38-.65-2.22,0-1.39.53-2.48,1.61-3.28,1.07-.8,2.43-1.19,4.09-1.19,1.23,0,2.34.21,3.34.62v-.95c0-.86-.25-1.51-.76-1.97-.51-.45-1.19-.68-2.03-.68-1.36,0-2.54.59-3.52,1.77l-1.94-1.77c.64-.77,1.46-1.39,2.46-1.86,1-.47,2.11-.71,3.31-.71,1.05,0,2,.2,2.85.6Zm-5.59,10.68c.43.36,1.04.54,1.81.54.93,0,1.74-.27,2.41-.81.67-.54,1.01-1.21,1.01-2.02v-.75c-.36-.17-.82-.32-1.36-.44-.54-.12-1.13-.18-1.75-.18-.79,0-1.45.19-1.98.57-.53.38-.79.91-.79,1.59,0,.63.22,1.13.65,1.49Z"/>
      <path d="m34,53.5l1.92-1.46c.64.55,1.29.93,1.94,1.16.66.22,1.43.33,2.33.33.85,0,1.54-.17,2.08-.5.54-.33.82-.82.82-1.45,0-1.25-1.25-1.88-3.75-1.88h-1.48v-2.06h1.14c1.17,0,2.07-.15,2.69-.45.62-.3.93-.74.93-1.32,0-.53-.25-.93-.74-1.21-.49-.27-1.11-.41-1.85-.41s-1.4.12-2.07.37c-.67.25-1.26.6-1.76,1.04l-1.81-1.62c.74-.72,1.61-1.29,2.6-1.72.99-.43,2.05-.64,3.17-.64,1.05,0,1.99.15,2.82.46.83.31,1.47.74,1.93,1.3.46.56.69,1.19.69,1.91,0,.79-.23,1.43-.69,1.94-.46.51-1.09.87-1.9,1.09v.1c.86.15,1.58.51,2.16,1.08.58.57.87,1.31.87,2.24,0,.82-.26,1.56-.78,2.22-.52.66-1.22,1.17-2.11,1.53-.89.36-1.88.54-2.97.54-2.69,0-4.76-.86-6.19-2.59Z"/>
      <path d="m48.79,42.02h2.9v1.98h.05c.45-.63,1.06-1.16,1.83-1.59.77-.43,1.63-.64,2.58-.64,1.16,0,2.21.29,3.15.87.94.58,1.68,1.41,2.23,2.48.54,1.07.82,2.32.82,3.74s-.28,2.73-.85,3.82c-.57,1.09-1.34,1.92-2.3,2.49-.97.57-2.02.86-3.16.86-.83,0-1.6-.17-2.32-.5-.72-.33-1.28-.74-1.7-1.22h-.1v7.14h-3.11v-19.42Zm4.05,10.07c.68.81,1.57,1.21,2.65,1.21s1.92-.4,2.59-1.19c.67-.8,1.01-1.86,1.01-3.2s-.34-2.45-1.02-3.24c-.68-.79-1.55-1.18-2.6-1.18-.64,0-1.24.17-1.8.51-.56.34-1.01.85-1.35,1.53-.34.68-.51,1.49-.51,2.43,0,1.28.34,2.33,1.02,3.13Z"/>
      <path d="m67.51,55.12c-1.04-.6-1.84-1.44-2.42-2.53-.58-1.09-.87-2.33-.87-3.74s.29-2.57.87-3.65c.58-1.08,1.39-1.92,2.42-2.53,1.04-.61,2.2-.91,3.5-.91s2.35.3,3.33.9c.98.6,1.74,1.43,2.29,2.51.55,1.07.83,2.29.83,3.66,0,.5,0,.87-.03,1.1h-10.02c.16,1.05.56,1.88,1.2,2.52.65.63,1.54.95,2.68.95.79,0,1.52-.16,2.19-.48.66-.32,1.21-.72,1.64-1.22l1.79,1.8c-.55.74-1.36,1.34-2.41,1.81-1.05.47-2.18.71-3.39.71-1.36,0-2.56-.3-3.6-.9Zm6.84-7.48c-.03-.98-.37-1.78-1.01-2.4-.64-.63-1.42-.94-2.33-.94-.97,0-1.78.3-2.43.91-.66.61-1.05,1.42-1.19,2.43h6.97Z"/>
      <path d="m80.02,42.02h3.06v11.25h4.45v-11.25h3v11.25h4.45v-11.25h3.06v13.77h-18.02v-13.77Z"/>
      <path d="m104.1,55.12c-1.04-.6-1.84-1.44-2.42-2.53-.58-1.09-.87-2.33-.87-3.74s.29-2.57.87-3.65c.58-1.08,1.39-1.92,2.42-2.53,1.04-.61,2.2-.91,3.5-.91s2.35.3,3.33.9c.98.6,1.74,1.43,2.29,2.51.55,1.07.83,2.29.83,3.66,0,.5,0,.87-.03,1.1h-10.02c.16,1.05.56,1.88,1.2,2.52.65.63,1.54.95,2.68.95.79,0,1.52-.16,2.19-.48.66-.32,1.21-.72,1.64-1.22l1.79,1.8c-.55.74-1.36,1.34-2.41,1.81-1.05.47-2.18.71-3.39.71-1.36,0-2.56-.3-3.6-.9Zm6.84-7.48c-.03-.98-.37-1.78-1.01-2.4-.64-.63-1.42-.94-2.33-.94-.97,0-1.78.3-2.43.91-.66.61-1.05,1.42-1.19,2.43h6.97Z"/>
      <path d="m125.65,50.08h-5.93v5.7h-3.11v-13.77h3.11v5.45h5.93v-5.45h3.13v13.77h-3.13v-5.7Z"/>
      <path d="m132.2,42.02h3.11v9.3h.08l5.9-9.3h3.11v13.77h-3.11v-9.33h-.1l-5.88,9.33h-3.11v-13.77Z"/>
      <path d="m150.27,55.12c-1.04-.6-1.84-1.44-2.42-2.53-.58-1.09-.87-2.33-.87-3.74s.29-2.57.87-3.65c.58-1.08,1.39-1.92,2.42-2.53,1.04-.61,2.2-.91,3.5-.91s2.35.3,3.33.9c.98.6,1.74,1.43,2.29,2.51.55,1.07.83,2.29.83,3.66,0,.5,0,.87-.03,1.1h-10.02c.16,1.05.56,1.88,1.2,2.52.65.63,1.54.95,2.68.95.79,0,1.52-.16,2.19-.48.66-.32,1.21-.72,1.64-1.22l1.79,1.8c-.55.74-1.36,1.34-2.41,1.81-1.05.47-2.18.71-3.39.71-1.36,0-2.56-.3-3.6-.9Zm6.84-7.48c-.03-.98-.37-1.78-1.01-2.4-.64-.63-1.42-.94-2.33-.94-.97,0-1.78.3-2.43.91-.66.61-1.05,1.42-1.19,2.43h6.97Z"/>
    </g>
  </g>
</svg>